<?xml version="1.0" encoding="UTF-8" standalone="no"?>
<svg
   width="16"
   height="16"
   fill="white"
   class="bi bi-x-lg"
   viewBox="0 0 16 16"
   version="1.1"
   id="svg6"
   sodipodi:docname="x-lg.svg"
   inkscape:version="1.1.1 (1:1.1+202109281949+c3084ef5ed)"
   xmlns:inkscape="http://www.inkscape.org/namespaces/inkscape"
   xmlns:sodipodi="http://sodipodi.sourceforge.net/DTD/sodipodi-0.dtd"
   xmlns="http://www.w3.org/2000/svg"
   xmlns:svg="http://www.w3.org/2000/svg">
  <defs
     id="defs10" />
  <sodipodi:namedview
     id="namedview8"
     pagecolor="#ffffff"
     bordercolor="#666666"
     borderopacity="1.0"
     inkscape:pageshadow="2"
     inkscape:pageopacity="0.0"
     inkscape:pagecheckerboard="0"
     showgrid="false"
     inkscape:zoom="8.09375"
     inkscape:cx="5.4980695"
     inkscape:cy="11.675676"
     inkscape:window-width="1366"
     inkscape:window-height="703"
     inkscape:window-x="0"
     inkscape:window-y="0"
     inkscape:window-maximized="1"
     inkscape:current-layer="svg6" />
  <g
     id="g22"
     transform="matrix(0.49993645,0,0,0.49993645,4.0005084,4.0005739)">
    <path
       fill-rule="evenodd"
       d="m 13.854,2.146 a 0.5,0.5 0 0 1 0,0.708 l -11,11 A 0.5006316,0.5006316 0 0 1 2.146,13.146 l 11,-11 a 0.5,0.5 0 0 1 0.708,0 z"
       id="path2" />
    <path
       fill-rule="evenodd"
       d="m 2.146,2.146 a 0.5,0.5 0 0 0 0,0.708 l 11,11 a 0.5006316,0.5006316 0 0 0 0.708,-0.708 l -11,-11 a 0.5,0.5 0 0 0 -0.708,0 z"
       id="path4" />
  </g>
</svg>
