<?xml version="1.0" encoding="UTF-8" standalone="no"?>
<!-- Created with Inkscape (http://www.inkscape.org/) -->

<svg
   version="1.1"
   id="svg569"
   xml:space="preserve"
   width="5733.0532"
   height="2390.2268"
   viewBox="0 0 5733.0532 2390.2268"
   sodipodi:docname="sífilis.svg"
   inkscape:version="1.1.1 (1:1.1+202109281949+c3084ef5ed)"
   xmlns:inkscape="http://www.inkscape.org/namespaces/inkscape"
   xmlns:sodipodi="http://sodipodi.sourceforge.net/DTD/sodipodi-0.dtd"
   xmlns="http://www.w3.org/2000/svg"
   xmlns:svg="http://www.w3.org/2000/svg"><defs
     id="defs573"><clipPath
       clipPathUnits="userSpaceOnUse"
       id="clipPath583"><path
         d="M 0,1792.673 H 4299.794 V 0 H 0 Z"
         id="path581" /></clipPath></defs><sodipodi:namedview
     id="namedview571"
     pagecolor="#ffffff"
     bordercolor="#666666"
     borderopacity="1.0"
     inkscape:pageshadow="2"
     inkscape:pageopacity="0.0"
     inkscape:pagecheckerboard="0"
     showgrid="false"
     inkscape:zoom="0.08"
     inkscape:cx="2181.25"
     inkscape:cy="1706.25"
     inkscape:window-width="1366"
     inkscape:window-height="703"
     inkscape:window-x="0"
     inkscape:window-y="0"
     inkscape:window-maximized="1"
     inkscape:current-layer="g575" /><g
     id="g575"
     inkscape:groupmode="layer"
     inkscape:label="sífilis"
     transform="matrix(1.3333333,0,0,-1.3333333,0,2390.2267)"><g
       id="g577"><g
         id="g579"
         clip-path="url(#clipPath583)"><g
           id="g585"
           transform="translate(4159.645,1628.4803)"><path
             d="m 0,0 c -4.982,2.838 -10.915,3.414 -16.647,3.557 -30.992,0.778 -64.039,-11.129 -80.824,-37.193 -14.582,-22.642 -14.684,-51.364 -22.451,-77.151 -9.455,-31.393 -30.151,-57.97 -50.418,-83.742 -4.314,-5.484 -10.222,-11.586 -17.03,-10.059 -2.079,83.412 -36.548,170.168 -106.388,215.824 -23.684,15.484 -50.352,25.69 -76.788,35.779 -29.639,11.313 -59.739,22.735 -91.333,25.621 -64.434,5.886 -126.944,-24.424 -179.341,-62.384 -24.44,-17.705 -48.341,-38.254 -60.54,-65.859 -6.547,-14.814 -9.405,-31.047 -10.208,-47.223 -1.67,-33.685 39.534,-70.586 50.944,-98.123 -36.036,15.007 -107.35,32.109 -146.3,29.368 -31.638,-2.227 -62.59,-10.429 -92.558,-20.811 -22.601,-7.829 -45.775,-17.643 -60.799,-36.254 -7.984,-9.891 -13.183,-21.725 -17.456,-33.697 -20.711,-58.029 -21.166,-123.07 -1.267,-181.382 19.899,-58.313 58.516,-113.599 110.4,-146.831 19.68,-12.605 27.572,-22.912 48.902,-33.087 25.758,-12.288 46.878,-21.32 72.668,-33.539 27.194,-12.885 77.565,-24.756 105.827,-14.421 3.637,-15.848 -6.142,-31.357 -15.452,-44.687 -36.675,-52.514 -75.983,-107.301 -133.986,-134.477 -37.218,-17.437 -79.105,-21.953 -119.759,-22.6 -3.137,-0.049 -6.546,0.17 -10.051,0.386 -17.713,137.486 -78.181,269.759 -174.806,369.361 -7.358,7.584 -30.86,28.202 -38.87,35.095 -24.059,20.705 -57.877,39.601 -75.462,43.321 -41.758,8.835 -75.621,14.785 -118.085,10.481 -15.05,-1.525 -35.327,-15.419 -49.118,-21.635 -30.41,-13.705 -50.412,-44.771 -57.844,-77.288 -7.432,-32.517 -3.868,-66.533 2.198,-99.333 7.767,-42 19.581,-83.251 35.226,-122.996 6.57,-16.691 13.858,-33.2 23.613,-48.253 15.083,-23.276 35.656,-42.457 57.004,-60.167 81.09,-67.266 176.781,-116.841 278.504,-144.278 -11.728,-50.839 -31.127,-101.086 -65.228,-140.574 -17.111,-19.816 -37.529,-36.481 -58.257,-52.475 -14.842,-11.452 -29.984,-22.669 -46.59,-31.368 -51.237,-26.841 -111.651,-27.628 -169.492,-27.808 -23.339,-0.072 -46.814,-0.134 -69.822,3.78 -73.755,12.55 -134.094,63.8 -190.397,113.066 -31.356,27.435 -62.71,54.871 -94.066,82.307 -10.797,9.448 -24.977,26.771 -38.706,36.257 17.002,97.739 12.016,199.338 -15.264,294.745 -11.308,39.552 -26.89,78.965 -54.32,109.622 -48.515,54.225 -100.093,81.212 -171.414,66.816 -14.897,-3.008 -56.084,-21.152 -66.936,-31.795 -10.782,-10.576 -18.682,-20.754 -23.017,-35.223 -9.429,-31.474 -17.848,-64.653 -11.428,-96.876 4.022,-20.189 13.656,-38.751 23.178,-57 37.284,-71.458 74.749,-143.211 122.089,-208.444 7.916,-10.908 16.423,-22.457 17.316,-35.905 0.628,-9.452 -2.627,-18.683 -5.836,-27.596 -9.04,-25.116 -18.081,-50.232 -27.121,-75.349 -6.74,-18.725 -13.666,-37.796 -25.867,-53.519 -17.401,-22.427 -43.691,-35.802 -69.094,-48.466 -26.118,-13.021 -52.235,-26.041 -78.353,-39.061 -24.339,-12.134 -48.842,-24.333 -74.959,-31.916 -56.047,-16.273 -116.886,-10.225 -172.18,8.448 -55.295,18.674 -105.733,49.38 -153.694,82.636 -29.114,20.187 -57.731,41.605 -81.337,68.022 -23.745,26.571 -36.353,61.557 -59.836,88.358 -61.757,70.484 -60.067,102.918 -90.1,154.377 14.717,65.139 19.35,132.918 23.552,199.838 2.202,35.077 4.287,70.879 -4.746,104.844 -9.034,33.964 -31.264,66.388 -64.294,78.395 -21.064,7.658 -44.209,6.413 -66.53,4.369 -18.102,-1.658 -36.822,-3.993 -52.326,-13.485 -26.667,-16.325 -37.324,-49.383 -43.294,-80.077 -11.854,-60.944 -13.303,-123.898 -4.267,-185.324 4.862,-33.051 12.756,-66.058 10.904,-99.414 -2.728,-49.102 -26.209,-94.328 -49.186,-137.809 -30.264,-57.27 -60.902,-115.094 -103.288,-164.075 -83.048,-95.969 -207.258,-151.101 -333.468,-164.436 -51.827,-5.475 -105.369,-4.201 -154.451,13.32 -65.689,23.445 -118.551,71.569 -163.69,126.719 -21.383,26.123 -91.676,93.296 -91.676,93.296 -30.822,15.967 -70.256,31.403 -97.775,10.246 -8.997,-6.917 -15.166,-16.938 -23.934,-24.143 -8.664,-7.119 -19.523,-11.207 -28.052,-18.487 -18.763,-16.016 -22.255,-44.683 -14.959,-68.248 7.297,-23.566 23.328,-43.265 39.001,-62.316 60.981,-74.122 123.365,-149.507 204.256,-201.174 90.143,-57.576 199.753,-82.13 306.475,-74.974 106.723,7.156 210.381,45.143 300.224,103.188 41.675,26.926 80.577,58.141 115.893,92.992 60.256,59.464 109.571,128.91 158.553,197.957 13.677,19.281 27.391,38.642 40.617,58.303 -10.455,-11.29 108.57,-112.301 200.918,-206.607 9.708,-9.914 17.606,-21.597 28.265,-30.479 14.77,-12.309 40.464,-22.869 58.262,-30.144 49.699,-20.314 87.691,-49.52 141.51,-57.84 24.567,-3.798 46.222,-18.871 70.666,-23.384 27.378,-5.054 78.935,-9.805 106.743,-8.48 58.014,2.761 92.572,11.579 150.587,14.34 15.978,0.76 34.538,8.572 48.361,16.622 14.329,8.345 24.932,9.826 38.208,19.762 32.514,24.338 81.68,30.447 97.498,67.854 3.373,7.977 13.042,22.2 17.542,29.599 6.534,10.745 14.649,22.864 25.462,29.285 17.137,10.174 23.891,21.457 32.967,39.202 7.686,15.027 17.949,19.215 25.98,34.059 6.724,12.427 16.066,23.225 23.638,35.155 1.09,1.717 2.129,3.463 3.146,5.223 13.684,-24.129 33.186,-45.559 54.885,-63.264 39.775,-32.455 86.14,-55.921 126.87,-87.168 11.613,-8.909 23.004,-18.586 36.648,-23.886 12.063,-4.686 35.545,-25.466 48.124,-28.509 45.443,-10.995 71.026,-28.315 116.718,-38.223 18.731,-4.061 38.129,-3.3 57.273,-2.4 58.973,2.773 118.859,6.871 174.283,27.207 46.071,16.904 87.366,44.42 128.171,71.682 38.551,25.755 78.209,52.619 103.21,91.662 13.585,21.215 22.245,45.191 29.371,69.352 14.143,47.954 22.151,97.485 24.379,147.309 13.383,-1.83 27.694,-0.279 41.174,1.841 77.489,12.191 152.985,36.961 222.635,73.046 14.224,7.368 15.671,19.619 27.697,30.203 15.332,13.496 39.388,26.493 50.03,43.929 18.036,29.551 34.461,60.085 49.178,91.423 6.196,13.194 12.098,26.555 16.713,40.382 5.184,15.534 8.702,31.563 12.106,47.587 11.807,-2.188 25.317,-1.015 37.174,1.026 28.912,4.977 57.993,10.567 84.999,22.025 52.111,22.11 93.227,64.885 123.608,112.649 30.382,47.763 51.201,100.835 73.043,153.059 4.029,9.63 8.253,19.485 15.53,26.972 4.398,4.525 9.74,7.998 14.912,11.614 91.244,63.776 134.963,176.296 157.218,285.372 C 13.313,-28.883 14.345,-8.167 0,0 Z"
             style="fill:none;stroke:#e30613;stroke-width:9;stroke-linecap:butt;stroke-linejoin:miter;stroke-miterlimit:10;stroke-dasharray:none;stroke-opacity:1"
             id="path587" /></g><g
           id="g589"
           transform="translate(1180.8348,1047.9374)"><path
             d="m 0,0 c 3.142,-6.472 3.917,-13.788 5.424,-20.823 4.587,-21.411 16.206,-40.922 19.899,-62.506 3.912,-22.867 -1.347,-46.236 -1.175,-69.435 0.061,-8.353 0.827,-16.761 -0.388,-25.025 -1.318,-8.964 -4.91,-17.405 -7.66,-26.038 -8.469,-26.582 -9.254,-55.934 -23.222,-80.085 -2.13,8.424 -3.49,17.02 -4.846,25.603 -13.351,84.471 -26.673,171.123 -9.604,254.922 1.18,5.794 1.497,14.245 7.723,14.989 C -8.17,12.279 -2.073,4.268 0,0"
             style="fill:#e30613;fill-opacity:1;fill-rule:nonzero;stroke:none"
             id="path591" /></g><g
           id="g593"
           transform="translate(1202.8344,1030.2113)"><path
             d="m 0,0 c 3.269,3.06 7.7,6.006 7.673,10.483 -0.012,1.875 -0.862,3.639 -1.16,5.49 -0.888,5.53 3.139,10.521 6.899,14.673 7.203,7.954 14.895,16.233 25.114,19.506 7.474,2.394 15.749,1.89 22.938,5.04 2.454,1.076 4.761,2.57 7.378,3.144 6.075,1.332 11.989,-2.516 18.136,-3.458 3.529,-0.54 8.441,1.542 7.456,4.974 -0.758,2.644 -4.28,3.053 -7.029,2.94 C 78.168,62.415 68.93,62.036 59.693,61.658 47.995,61.179 36.04,60.647 25.149,56.349 23.516,55.704 21.878,54.954 20.618,53.731 19.201,52.356 18.364,50.488 17.047,49.017 14.981,46.708 11.947,45.58 9.208,44.132 2.642,40.663 -2.566,35.075 -6.983,29.105 -18.335,13.764 -25.23,-4.835 -26.623,-23.869 c -0.397,-5.429 -0.507,-15.208 5.361,-18.246 5.306,-2.748 8.941,1.372 10.496,6.216 C -6.627,-23.018 -11.465,-10.732 0,0"
             style="fill:#e30613;fill-opacity:1;fill-rule:nonzero;stroke:none"
             id="path595" /></g><g
           id="g597"
           transform="translate(1179.2577,1071.9213)"><path
             d="m 0,0 c 5.192,7.818 11.827,14.589 17.103,22.351 2.191,3.223 4.153,6.624 6.72,9.556 7.907,9.034 21.59,12.482 32.834,8.274 C 44.005,32.311 29.769,26.57 19.126,16.142 15.208,12.302 11.876,7.915 8.56,3.545 5.588,-0.372 2.617,-4.288 -0.355,-8.205 -1.689,-9.962 -4.001,-23.948 -7.033,-17.941 -9.143,-13.759 -2.179,-3.281 0,0"
             style="fill:#e30613;fill-opacity:1;fill-rule:nonzero;stroke:none"
             id="path599" /></g><g
           id="g601"
           transform="translate(1405.536,600.8989)"><path
             d="m 0,0 c -1.189,-2.712 -0.529,-6.587 2.261,-7.578 0.898,-0.319 1.936,-0.316 2.697,-0.891 1.039,-0.786 1.124,-2.29 1.112,-3.594 -0.136,-15.53 -0.699,-31.057 -1.686,-46.557 7.479,8.088 12.306,18.59 13.574,29.533 0.305,2.643 0.434,5.394 1.659,7.754 1.226,2.361 3.964,4.206 6.502,3.412 2.989,-0.935 3.904,-4.604 4.687,-7.638 1.135,-4.39 3.063,-8.718 6.393,-11.797 3.33,-3.079 8.257,-4.69 12.55,-3.228 4.032,5.21 0.407,12.789 -3.908,17.768 -3.876,4.47 -8.311,8.456 -13.169,11.835 -1.639,1.139 -3.412,2.309 -4.218,4.135 -0.438,0.992 -0.55,2.101 -0.954,3.107 -1.19,2.96 -5.171,4.393 -7.975,2.872 2.178,1.181 3.874,15.405 3.544,17.996 -0.397,3.119 -2.67,12.593 -5.514,12.384 C 13.452,29.212 11.458,20.289 10.436,17.526 7.89,10.646 2.8,6.387 0,0"
             style="fill:#e30613;fill-opacity:1;fill-rule:nonzero;stroke:none"
             id="path603" /></g><g
           id="g605"
           transform="translate(1821.6351,274.2182)"><path
             d="m 0,0 c -6.469,3.272 -12.578,7.763 -16.22,14.031 -3.641,6.27 -4.383,14.557 -0.493,20.676 2.964,4.663 8.212,7.644 10.7,12.578 -14.175,-2.432 -25.859,-15.321 -26.892,-29.667 -0.439,-6.097 1.806,-13.372 7.669,-15.105 1.435,-0.424 3.079,-0.523 4.144,-1.575 1.032,-1.02 1.181,-2.609 1.776,-3.933 1.82,-4.055 7.812,-5.658 8.28,-10.078 0.369,-3.486 -3.103,-7.088 -1.389,-10.145 1.405,-2.509 5.117,-2.341 7.421,-4.061 2.53,-1.888 2.842,-5.598 4.863,-8.025 7.734,-9.284 18.123,2.318 18.455,10.019 C 18.875,-12.261 10.377,-5.25 0,0"
             style="fill:#e30613;fill-opacity:1;fill-rule:nonzero;stroke:none"
             id="path607" /></g><g
           id="g609"
           transform="translate(1666.5365,322.3608)"><path
             d="m 0,0 c -1.675,-1.312 -3.337,-2.756 -4.266,-4.669 -1.058,-2.18 -1.044,-4.704 -1.008,-7.125 0.048,-3.304 0.097,-6.607 0.145,-9.91 0.048,-3.266 1.551,-7.775 4.732,-7.037 -0.241,5.646 -0.203,12.035 3.862,15.962 1.591,1.535 3.634,2.499 5.637,3.435 5.531,2.585 11.064,5.171 16.6,7.76 6.657,3.111 17.417,2.206 19.719,9.697 1.77,5.759 -1.824,10.683 -7.016,11.377 C 28.989,20.75 6.885,5.389 0,0"
             style="fill:#e30613;fill-opacity:1;fill-rule:nonzero;stroke:none"
             id="path611" /></g><g
           id="g613"
           transform="translate(1483.2694,481.6059)"><path
             d="m 0,0 c 1.271,-1.864 3.048,-3.46 3.711,-5.616 1.128,-3.671 -1.147,-8.342 1.466,-11.157 0.96,-1.034 2.367,-1.502 3.714,-1.924 5.06,-1.585 10.154,-3.062 15.277,-4.428 1.415,-0.378 2.898,-0.749 4.327,-0.425 1.427,0.323 2.758,1.578 2.643,3.038 -0.138,1.743 -2.046,2.697 -3.683,3.31 -4.356,1.632 -8.713,3.263 -13.069,4.894 -1.532,0.575 -3.156,1.216 -4.107,2.547 -2.115,2.962 0.29,6.933 0.688,10.551 0.833,7.566 -7.5,14.551 -5.063,21.763 0.788,2.333 2.624,4.195 3.434,6.521 C 12.624,38.505 1.943,40.78 -1.17,31.021 -3.531,23.619 -4.511,6.622 0,0"
             style="fill:#e30613;fill-opacity:1;fill-rule:nonzero;stroke:none"
             id="path615" /></g><g
           id="g617"
           transform="translate(2242.5325,644.6264)"><path
             d="m 0,0 c 0.258,-1.991 0.864,-3.998 0.494,-5.971 -0.639,-3.406 -3.878,-5.57 -6.11,-8.221 -4.1,-4.869 -4.888,-11.769 -4.155,-18.091 0.734,-6.322 2.788,-12.426 3.686,-18.727 2.274,-15.946 -2.561,-33.837 6.364,-47.245 1.56,18.749 3.115,37.702 0.3,56.304 -0.964,6.366 -2.401,13.079 -0.044,19.071 2.17,5.517 7.641,9.581 13.549,10.067 4.111,-3.53 6.21,-9.262 5.351,-14.614 -0.498,-3.095 -0.87,-7.725 2.259,-7.937 1.472,-0.1 2.688,1.134 3.458,2.391 4.187,6.837 1.435,15.72 -2.129,22.901 -3.563,7.18 -7.992,14.701 -6.824,22.632 1.803,12.248 17.2,21.085 14.372,34.195 C 20.202,48.812 17.779,34.658 13.198,28.048 7.326,19.577 -1.244,11.197 0,0"
             style="fill:#e30613;fill-opacity:1;fill-rule:nonzero;stroke:none"
             id="path619" /></g><g
           id="g621"
           transform="translate(2183.0618,1096.0614)"><path
             d="m 0,0 c -4.312,-1.72 -8.626,-3.44 -12.938,-5.161 -3.085,-1.23 -6.219,-2.488 -8.823,-4.55 -3.021,-2.393 -5.155,-5.741 -6.787,-9.233 -3.81,-8.158 -5.113,-17.226 -6.372,-26.141 -0.445,-3.156 -0.876,-6.466 0.233,-9.454 1.111,-2.986 4.314,-5.455 7.383,-4.596 3.29,5.873 2.207,13.089 2.649,19.806 0.428,6.519 2.526,13.126 6.987,17.898 4.26,4.557 10.559,7.131 16.79,6.86 1.688,-0.074 3.4,-0.341 5.047,0.032 1.646,0.374 3.256,1.614 3.392,3.297 0.128,1.595 -0.972,3.516 0.191,4.615 0.459,0.433 1.127,0.54 1.752,0.627 5.393,0.748 17.443,-0.127 10.457,6.642 C 14.678,5.761 5.569,2.222 0,0"
             style="fill:#e30613;fill-opacity:1;fill-rule:nonzero;stroke:none"
             id="path623" /></g><g
           id="g625"
           transform="translate(2288.0754,883.7543)"><path
             d="m 0,0 c 9.135,1.609 17.522,5.956 25.763,10.217 4.54,2.348 9.843,4.735 14.562,2.768 C 47.728,9.9 51.528,11.577 58.845,10.377 64.93,9.379 68.084,5.29 70.459,14.527 73.047,24.593 65.232,28.758 56.561,29.146 46.179,29.611 32.625,26.14 23.494,21.248 17.293,17.926 16.757,11.193 12.175,7.94 9.293,5.895 5.908,8.069 3.37,6.498 2.614,6.03 -1.911,-0.336 0,0"
             style="fill:#e30613;fill-opacity:1;fill-rule:nonzero;stroke:none"
             id="path627" /></g><g
           id="g629"
           transform="translate(2407.9436,519.02)"><path
             d="m 0,0 c 1.349,-2.259 2.776,-4.6 3.009,-7.221 0.231,-2.621 -1.163,-5.597 -3.723,-6.208 -2.986,-0.713 -5.786,2.105 -6.599,5.066 -0.814,2.96 -0.351,6.112 -0.714,9.161 -0.741,6.21 -4.892,12.107 -3.581,18.223 1.023,4.771 5.096,8.187 8.921,11.217 2.758,2.185 5.516,4.369 8.275,6.554 1.354,1.073 2.808,2.31 3.073,4.018 0.081,0.519 0.058,1.095 0.385,1.507 0.273,0.346 0.727,0.486 1.156,0.588 5.93,1.418 12.596,-1.001 16.235,-5.891 C 36.468,23.54 14.021,30.618 8.98,27.69 0.529,22.78 -4.85,8.119 0,0"
             style="fill:#e30613;fill-opacity:1;fill-rule:nonzero;stroke:none"
             id="path631" /></g><g
           id="g633"
           transform="translate(2696.51,352.5668)"><path
             d="M 0,0 C -4.04,2.673 -8.054,5.563 -12.693,6.957 -18.9,8.82 -25.562,7.816 -31.962,6.798 c -6.536,-1.04 -13.072,-2.08 -19.609,-3.12 -3.48,-0.554 -7.94,-2.304 -7.54,-5.805 0.545,-4.764 9.196,-4.396 10.329,-9.055 0.8,-3.285 -2.78,-5.731 -5.274,-8.013 -6.128,-5.607 -7.123,-14.76 -7.533,-23.056 4.964,-0.858 10.046,-1.036 15.059,-0.526 2.245,7.773 4.49,15.547 6.735,23.321 0.76,2.627 1.525,5.364 1.071,8.061 -0.454,2.698 -2.514,5.333 -5.245,5.497 13.878,4.901 29.477,4.759 43.264,-0.394 2.907,-1.086 5.777,-2.414 8.122,-4.447 C 9.6,-12.633 25.898,-28.738 26.615,-16.478 26.865,-12.198 4.228,-2.796 0,0"
             style="fill:#e30613;fill-opacity:1;fill-rule:nonzero;stroke:none"
             id="path635" /></g><g
           id="g637"
           transform="translate(2855.6594,336.6606)"><path
             d="m 0,0 c -2.37,-1.465 -4.247,-4.063 -4.043,-6.841 0.185,-2.503 1.949,-4.58 3.732,-6.345 7.133,-7.056 16.048,-12.297 25.683,-15.098 3.312,-0.962 6.9,-1.632 10.168,-0.529 2.954,0.997 5.241,3.3 7.603,5.335 5.781,4.984 12.635,8.715 19.958,10.866 3.661,-3.064 3.149,-9.194 0.171,-12.925 -2.977,-3.733 -7.637,-5.63 -12.12,-7.274 -11.015,-4.039 -22.31,-7.478 -33.93,-9.101 1.162,3.772 -3.161,6.941 -6.997,7.873 -5.057,1.227 -10.341,0.996 -15.514,1.568 -5.172,0.572 -10.575,2.153 -13.961,6.105 -2.884,3.367 -3.876,8.257 -2.533,12.481 1.343,4.226 4.976,7.644 9.275,8.728 -2.746,3.68 -7.986,4.148 -12.576,4.295 0.325,3.806 4.643,5.811 8.383,6.588 C -9.95,7.127 -2.993,7.069 3.901,7.006 5.126,6.994 6.441,6.954 7.426,6.224 11.971,2.851 1.437,0.888 0,0"
             style="fill:#e30613;fill-opacity:1;fill-rule:nonzero;stroke:none"
             id="path639" /></g><g
           id="g641"
           transform="translate(3111.8665,538.0092)"><path
             d="m 0,0 c -0.444,-4.134 -1.582,-8.295 -0.857,-12.39 1.32,-7.469 8.224,-12.391 14.17,-17.104 5.944,-4.713 11.95,-11.47 10.395,-18.896 4.351,1.873 8.349,4.562 11.724,7.884 0.893,-6.099 -4.282,-11.223 -8.991,-15.202 -2.245,-1.896 -4.699,-3.883 -7.629,-4.11 -4.068,-0.316 -7.67,2.988 -9.249,6.751 -1.58,3.761 -1.656,7.952 -2.105,12.007 -0.449,4.055 -1.425,8.318 -4.315,11.198 -3.32,3.308 -8.368,4.046 -12.45,6.349 -4.082,2.303 -7.141,8.208 -3.797,11.492 0.754,0.74 1.771,1.258 2.255,2.198 1.207,2.344 -1.63,4.615 -2.787,6.985 -1.973,4.04 1.167,8.638 1.53,13.119 0.189,2.339 -0.332,4.949 1.055,6.841 C -4.1,26.601 0.376,3.492 0,0"
             style="fill:#e30613;fill-opacity:1;fill-rule:nonzero;stroke:none"
             id="path643" /></g><g
           id="g645"
           transform="translate(3484.5686,1061.4115)"><path
             d="m 0,0 c 0.514,-14.563 9.336,-27.476 12.554,-41.688 3.217,-14.214 -3.419,-33.318 -17.989,-33.605 -0.491,10.488 1.773,20.899 2.372,31.382 0.598,10.483 -0.747,21.73 -7.371,29.877 -6.625,8.147 -19.829,11.511 -27.892,4.784 -1.595,-1.539 -0.867,-4.707 1.239,-5.396 -8.487,0.114 -16.222,-5.859 -20.142,-13.388 -3.92,-7.528 -4.586,-16.344 -4.079,-24.818 0.36,-5.985 1.367,-12.196 4.87,-17.062 4.457,-6.189 13.245,-9.191 20.25,-6.178 7.005,3.012 10.834,12.288 7.256,19.023 2.97,-0.008 5.94,-0.015 8.91,-0.022 -1.766,-14.07 -1.989,-31.513 10.232,-38.707 1.833,-1.079 3.922,-1.891 5.247,-3.556 2.457,-3.085 6.195,-5.215 4.916,-8.946 -22.833,-0.251 -116.852,33.681 -143.476,49.11 -3.349,1.942 -12.757,8.458 -16.168,10.292 -3.296,1.772 -92.752,76.528 -102.726,90.149 -9.355,12.773 -41.326,59.857 -42.96,65.952 -1.605,5.982 -21.608,100.989 -17.165,122.686 2.951,14.413 7.727,16.831 7.574,31.543 -0.482,46.245 29.567,102.105 75.525,107.273 4.734,-6.376 3.956,-15.33 1.377,-22.841 -2.578,-7.511 -6.723,-14.515 -8.244,-22.31 -3.047,-15.623 6.326,-32.759 21.125,-38.618 5.371,-2.127 11.301,-2.916 16.261,-5.877 4.63,-2.763 8.106,-7.248 12.924,-9.666 4.818,-2.418 12.172,-1.466 13.643,3.721 1.029,3.626 -1.326,7.266 -3.598,10.273 -10.54,13.944 -22.347,27.957 -25.808,45.09 -3.461,17.133 5.335,38.27 22.57,41.187 -8.407,-22.473 -6.31,-48.632 5.57,-69.479 9.673,-0.692 19.089,-4.594 26.418,-10.944 2.596,-2.249 5.236,-4.936 8.658,-5.222 5.789,-0.484 9.716,6.4 9.241,12.19 -0.474,5.79 -3.643,10.988 -5.091,16.615 -1.447,5.626 -0.382,12.847 4.906,15.251 -0.901,-8.49 -1.679,-17.614 2.506,-25.055 4.185,-7.442 15.464,-11.367 21.441,-5.27 5.984,6.106 2.519,16.122 0.213,24.354 -2.217,7.915 -2.979,16.235 -2.236,24.42 0.467,5.149 1.67,10.537 5.225,14.291 3.555,3.754 10.068,5.083 13.911,1.626 3.954,-3.557 3.312,-9.823 2.294,-15.044 -3.938,-20.196 -8.418,-42.309 1.38,-60.403 10.157,-18.758 32.275,-26.962 52.528,-33.661 6.505,6.156 5.87,16.818 2.588,25.152 -3.28,8.334 -8.685,15.896 -10.46,24.674 -1.774,8.779 1.874,19.78 10.593,21.831 1.787,-13.87 3.575,-27.74 5.363,-41.611 1.68,-13.024 5.638,-28.793 18.343,-32.114 -3.605,11.527 3.274,24.444 13.537,30.81 10.264,6.366 23.021,7.316 35.048,6.215 13.226,-1.211 26.574,-4.862 37.141,-12.908 C 58.77,274 47.085,276.343 35.428,276.239 23.771,276.135 11.058,272.853 4.373,263.302 -6.043,248.42 3.33,228.196 12.729,212.651 c 5.704,-9.431 14.394,-20.247 25.152,-17.845 3.078,0.687 5.841,2.453 8.933,3.072 11.294,2.261 19.249,-10.524 23.578,-21.198 -11.894,-2.135 -26.662,-7.357 -27.155,-19.431 -0.303,-7.445 5.396,-13.609 10.666,-18.875 17.188,-17.173 34.076,-34.884 47.353,-55.231 5.887,-9.021 11.221,-19.582 9.069,-30.137 -2.151,-10.555 -15.49,-18.833 -24.119,-12.384 -1.744,1.302 -3.212,3.107 -5.292,3.747 -4.976,1.532 -9.052,-4.364 -9.993,-9.485 C 69.658,28.022 70.603,20.771 73.581,14.46 75.19,11.052 77.441,7.566 76.866,3.841 76.02,-1.641 69.07,-4.388 63.771,-2.748 58.473,-1.107 54.668,3.466 51.504,8.023 29.911,39.125 24.071,78.07 16.164,115.099 c -7.907,37.028 -19.968,75.93 -49.366,99.792 -14.038,11.394 -31.042,18.459 -48.049,24.596 -15.44,5.572 -31.109,10.511 -46.954,14.8 -7.353,1.99 -14.859,3.854 -22.474,3.627 -11.143,-0.332 -21.615,-5.092 -31.736,-9.766 -6.946,-3.207 -14.521,-7.063 -17.244,-14.212 -1.056,-2.772 -1.262,-5.805 -2.265,-8.595 -1.305,-3.628 -3.888,-6.658 -6.718,-9.277 -14.549,-13.466 -37.306,-17.223 -55.413,-9.146 -18.105,8.077 -30.513,27.52 -30.213,47.344 4.684,1.58 7.19,-5.132 9.596,-9.45 6.084,-10.923 21.561,-10.135 34.03,-11.058 20.301,-1.501 39.79,-11.861 52.391,-27.849 1.344,-1.705 2.659,-3.593 2.827,-5.758 0.348,-4.506 -4.136,-7.685 -6.471,-11.555 -9.35,-15.5 17.222,-32.539 13.248,-50.199 -1.549,-6.881 -7.524,-14.447 -3.085,-19.928 1.863,-2.3 4.957,-3.09 7.765,-4.027 33.031,-11.019 44.123,-54.339 74.692,-71.013 11.142,-6.077 26.933,-12.053 25.651,-24.681 -0.98,-9.657 -11.77,-14.427 -20.268,-19.119 -8.498,-4.691 -16.702,-15.649 -10.498,-23.114 4.783,-5.753 14.122,-3.811 20.593,-0.057 12.763,7.403 22.387,20.034 26.14,34.303 1.044,3.973 1.915,8.474 5.291,10.815 6.546,4.541 14.455,-2.769 21.341,-6.778 9.79,-5.7 21.893,-4.586 33.219,-4.84 C -0.776,9.796 19.401,7.791 18.407,-1.7 12.496,-1.7 6.521,1.079 0,0"
             style="fill:#e30613;fill-opacity:1;fill-rule:nonzero;stroke:none"
             id="path647" /></g><g
           id="g649"
           transform="translate(808.4965,310.5834)"><path
             d="m 0,0 c -7.714,-3.435 -11.59,-15.726 -11.152,-23.387 0.173,-3.009 0.837,-6.041 0.307,-9.007 -0.968,-5.411 -5.569,-9.269 -9.147,-13.443 -6.194,-7.226 -9.829,-16.601 -10.125,-26.114 -0.168,-5.42 0.71,-10.839 0.449,-16.255 -0.562,-11.673 -6.308,-22.381 -11.92,-32.631 4.497,-1.349 9.211,2.27 11.013,6.606 1.802,4.335 1.557,9.198 1.802,13.886 0.626,11.973 4.722,23.743 11.664,33.517 7.471,10.518 18.654,20.067 18.822,32.967 0.113,8.677 -4.874,18.124 -0.294,25.497 C 3.964,-4.269 11.47,5.107 0,0"
             style="fill:#e30613;fill-opacity:1;fill-rule:nonzero;stroke:none"
             id="path651" /></g><g
           id="g653"
           transform="translate(848.4061,307.2202)"><path
             d="m 0,0 c -2.075,-2.465 -3.873,-5.292 -4.423,-8.468 -0.51,-2.941 0.07,-6.066 -0.946,-8.874 -1.487,-4.111 -6.039,-6.569 -7.361,-10.735 -1.036,-3.263 0.149,-6.778 0.09,-10.199 -0.09,-5.217 -3.036,-9.881 -4.97,-14.728 -5.268,-13.195 -3.07,-28.04 -0.792,-42.064 2.977,13.534 -0.231,28.547 6.204,40.819 2.229,4.249 5.506,7.894 7.61,12.205 4.251,8.711 3.319,19.245 7.517,27.982 C 7.356,-4.847 19.892,2.054 21.473,12.259 13.732,12.654 4.792,5.693 0,0"
             style="fill:#e30613;fill-opacity:1;fill-rule:nonzero;stroke:none"
             id="path655" /></g><g
           id="g657"
           transform="translate(918.0262,229.7387)"><path
             d="m 0,0 c -2.576,3.409 -4.709,7.178 -7.699,10.23 -2.576,2.631 -5.732,4.669 -8.122,7.47 -2.389,2.8 -3.94,6.788 -2.505,10.178 1.163,2.748 4.117,4.754 4.281,7.733 0.235,4.291 -5.137,6.419 -7.468,10.031 -1.478,2.29 -1.669,5.151 -1.816,7.874 -0.429,7.933 -0.833,16.075 1.578,23.646 2.798,8.787 9.276,16.427 10.073,25.614 0.773,8.891 -4.551,4.427 -6.862,0.813 -3.823,-5.98 -6.456,-13.408 -8.387,-20.202 -4.056,-14.262 -4.644,-29.53 -1.473,-44.027 0.474,-2.165 1.026,-4.428 0.429,-6.562 -0.577,-2.062 -2.136,-3.673 -3.327,-5.452 -5.083,-7.587 -2.471,-19.211 5.37,-23.894 2.431,-1.451 5.258,-2.315 7.309,-4.266 5.26,-5.003 3.009,-14.384 7.492,-20.093 4.561,-5.811 13.426,-5.029 20.69,-3.688 10.047,1.854 20.096,3.708 30.144,5.564 C 24.464,-19.486 9.192,-12.165 0,0"
             style="fill:#e30613;fill-opacity:1;fill-rule:nonzero;stroke:none"
             id="path659" /></g><g
           id="g661"
           transform="translate(588.1561,257.2934)"><path
             d="m 0,0 c -5.901,4.033 -13.66,-0.816 -19.089,-5.465 -7.675,-6.574 -16.003,-14.506 -15.911,-24.611 0.03,-3.432 1.073,-6.78 1.289,-10.206 0.752,-11.973 -8.496,-24.14 -3.861,-35.204 1.636,-3.907 4.907,-7.185 5.458,-11.384 0.925,-7.057 -5.921,-12.377 -9.423,-18.573 -7.103,-12.564 -0.096,-27.943 4.225,-41.713 0.579,-1.844 1.137,-3.76 2.374,-5.243 2.768,-3.319 7.034,-2.885 10.89,-2.834 5.49,0.073 6.692,-0.324 7.407,4.01 0.535,3.24 -2.439,9.156 -2.424,12.917 0.017,4.388 0.849,8.787 2.519,12.849 2.292,5.575 6.01,10.456 8.511,15.939 2.501,5.486 3.66,12.145 0.709,17.4 -3.431,6.109 -12.055,10.244 -10.875,17.151 0.689,4.031 4.776,6.935 5.146,11.008 0.547,6.016 -6.817,9.458 -9.455,14.892 -1.364,2.81 -1.388,6.076 -1.112,9.189 C -22.211,-23.966 -13.277,-8.884 0,0"
             style="fill:#e30613;fill-opacity:1;fill-rule:nonzero;stroke:none"
             id="path663" /></g><g
           id="g665"
           transform="translate(479.8875,293.478)"><path
             d="m 0,0 c -2.368,-3.48 -0.5,-8.223 -1.208,-12.371 -1.875,-11.001 -19.979,-13.196 -21.477,-24.255 -0.394,-2.912 0.545,-5.909 -0.028,-8.791 -0.963,-4.844 -5.759,-7.856 -8.274,-12.11 -4.897,-8.287 -0.593,-18.59 -0.987,-27.516 -0.226,-5.116 -4.127,-13.774 3.134,-13.807 15.375,-0.066 13.744,31.936 14.503,39.705 0.552,5.66 1.332,11.461 4.1,16.427 3.657,6.562 10.31,10.855 15.005,16.718 6.464,8.074 8.882,19.234 6.339,29.261 C 7.068,3.478 2.275,3.344 0,0"
             style="fill:#e30613;fill-opacity:1;fill-rule:nonzero;stroke:none"
             id="path667" /></g><g
           id="g669"
           transform="translate(394.014,254.145)"><path
             d="m 0,0 c -0.681,1.908 -1.437,3.86 -2.842,5.319 -4.337,4.503 -11.944,2.153 -17.915,4.004 1.543,11.362 3.085,22.723 4.627,34.084 0.589,4.339 1.157,8.888 -0.378,12.988 -1.535,4.1 -5.923,7.491 -10.146,6.336 0.311,-2.347 1.222,-4.613 2.622,-6.522 -9.725,-4.443 -15.873,-15.648 -14.396,-26.237 0.47,-3.362 1.56,-7.049 -0.205,-9.948 -2.046,-3.359 -6.996,-3.942 -9.15,-7.233 -2.042,-3.12 -0.668,-7.47 1.86,-10.209 2.529,-2.741 5.978,-4.416 8.979,-6.63 7.749,-5.716 12.399,-15.398 12.016,-25.02 -0.28,-7.043 -2.254,-15.957 3.756,-19.64 1.856,-1.138 4.195,-1.458 5.809,-2.921 3.855,-3.495 0.814,-9.686 0.092,-14.841 -0.747,-5.313 1.61,-10.95 5.915,-14.15 4.306,-3.201 10.381,-3.833 15.254,-1.589 4.19,1.93 2.777,33.645 2.629,37.674 C 7.968,-29.374 5.101,-14.292 0,0"
             style="fill:#e30613;fill-opacity:1;fill-rule:nonzero;stroke:none"
             id="path671" /></g><g
           id="g673"
           transform="translate(200.7108,434.0922)"><path
             d="m 0,0 c 12.545,3.093 20.033,17.493 32.708,19.997 8.896,1.76 18.137,-2.895 27.029,-1.118 4.434,0.886 8.417,3.312 12.787,4.474 8.766,2.329 17.973,-0.628 26.557,-3.555 12.307,-4.197 24.614,-8.393 36.92,-12.589 2.399,-0.818 5.052,-1.633 7.402,-0.682 2.348,0.952 3.576,4.575 1.508,6.04 -11.437,10.951 -23.944,20.785 -37.283,29.317 -6.134,3.923 -12.732,7.665 -19.994,8.207 -7.261,0.542 -15.317,-3.027 -17.748,-9.891 -0.871,-2.46 -1.146,-5.425 -3.262,-6.951 -1.023,-0.738 -2.31,-0.988 -3.55,-1.219 -7.34,-1.365 -14.996,-2.72 -22.178,-0.677 -3.003,0.854 -5.867,2.293 -8.971,2.63 -4.7,0.513 -9.298,-1.561 -13.305,-4.069 C 12.459,26.058 6.761,20.844 2.229,15.178 1.513,14.28 -5.636,-1.391 0,0"
             style="fill:#e30613;fill-opacity:1;fill-rule:nonzero;stroke:none"
             id="path675" /></g><g
           id="g677"
           transform="translate(1147.4877,424.2768)"><path
             d="m 0,0 c -5.16,-4.068 -11.153,-7.626 -17.721,-7.827 -2.785,-0.086 -5.928,0.33 -8.028,-1.501 -2.324,-2.028 -2.059,-5.638 -1.744,-8.707 1.435,-13.996 -0.98,-29.789 -11.861,-38.708 -5.85,-4.795 -13.584,-6.994 -21.146,-6.817 -6.858,0.162 -14.603,3.08 -16.7,9.611 -0.826,2.572 -0.77,5.631 -2.702,7.518 -2.3,2.245 -6.098,1.589 -9.1,2.738 -3.648,1.396 -5.661,5.241 -7.171,8.843 -4.178,9.959 -6.988,20.486 -8.368,31.196 -1.274,9.889 1.379,21.472 -1.029,30.968 -1.693,6.678 -8.778,12.945 -14.722,6.379 -2.621,-2.895 -2.349,-21.531 3.828,-17.826 -3.34,-2.004 -7.171,-5.047 -6.362,-8.857 0.444,-2.089 2.201,-3.595 3.774,-5.038 4.449,-4.081 8.172,-11.375 3.93,-15.672 -1,-1.013 -2.312,-1.657 -3.412,-2.564 -3.701,-3.045 -4.404,-8.615 -3.087,-13.223 1.316,-4.61 4.254,-8.547 6.905,-12.54 5.64,-8.497 10.204,-17.705 13.548,-27.34 1.008,-2.906 1.665,-6.7 -0.777,-8.572 -1.615,-1.238 -3.914,-1.006 -5.78,-1.821 -3.645,-1.591 -4.329,-7.053 -1.845,-10.16 2.484,-3.107 7.012,-3.961 10.888,-3.068 3.877,0.892 7.248,3.22 10.444,5.589 2.917,2.161 6.964,4.437 9.856,2.242 1.514,-1.151 2.062,-3.169 3.28,-4.629 3.275,-3.926 9.483,-2.445 14.517,-3.338 4.362,-0.774 8.235,-3.559 12.649,-3.942 6.627,-0.577 12.566,4.476 15.821,10.277 3.254,5.801 4.636,12.453 7.338,18.53 5.315,11.956 15.39,21.032 22.877,31.762 9.175,13.152 14.594,28.987 25.819,40.438 4.216,4.3 9.184,7.902 12.778,12.733 3.594,4.831 5.622,11.489 2.996,16.908 C 24.063,25.939 13.662,10.772 0,0"
             style="fill:#e30613;fill-opacity:1;fill-rule:nonzero;stroke:none"
             id="path679" /></g><g
           id="g681"
           transform="translate(978.3226,330.3012)"><path
             d="m 0,0 c -0.917,1.718 -1.894,3.503 -3.505,4.593 -2.353,1.593 -5.463,1.338 -8.173,2.185 -4.171,1.307 -7.144,5.277 -8.115,9.537 -0.971,4.261 -0.19,8.754 1.268,12.875 0.886,2.503 7.976,31.399 -4.368,23.371 -1.396,-0.908 -2.338,-2.35 -3.24,-3.752 -1.027,-1.595 -2.054,-3.191 -3.08,-4.788 -2.279,-3.54 -4.602,-7.188 -5.436,-11.315 -0.835,-4.126 0.146,-8.9 3.488,-11.461 1.075,-0.822 2.37,-1.411 3.179,-2.497 2.08,-2.789 -0.167,-6.587 -1.055,-9.951 -1.683,-6.378 2.199,-13.199 7.671,-16.881 5.471,-3.683 12.206,-4.873 18.745,-5.734 3.042,-0.401 7.257,0.115 7.562,3.168 C 5.055,-9.514 4.5,-8.429 3.963,-7.421 2.642,-4.947 1.321,-2.474 0,0"
             style="fill:#e30613;fill-opacity:1;fill-rule:nonzero;stroke:none"
             id="path683" /></g><g
           id="g685"
           transform="translate(763.1117,141.1264)"><path
             d="m 0,0 c -4.535,5.636 -3.285,14.891 -8.897,19.455 -5.536,4.5 -14.027,1.494 -20.689,4.044 -7.634,2.92 -11.206,12.414 -18.862,15.272 -8.794,3.281 -17.806,-3.556 -26.906,-5.858 -1.993,-0.505 -4.121,-0.785 -6.088,-0.185 -3.055,0.931 -5.114,3.781 -6.498,6.66 -4.598,9.557 -4.109,20.932 -0.936,31.052 3.065,9.781 9.143,24.707 17.036,31.576 5.925,5.158 14.429,8.069 4.635,17.247 -2.833,2.655 -8.071,3.642 -10.199,0.394 -1.286,-1.963 -0.832,-4.577 -1.546,-6.813 -2.394,-7.494 -14.93,-6.053 -18.885,-12.855 -2.385,-4.101 -0.606,-9.641 -2.895,-13.799 -2.095,-3.803 -6.811,-5.165 -10.185,-7.9 -4.841,-3.926 -6.68,-10.867 -5.277,-16.942 1.404,-6.074 5.683,-11.234 10.93,-14.6 0.919,-0.589 1.913,-1.177 2.423,-2.141 0.936,-1.768 -0.129,-3.874 -0.967,-5.689 -4.299,-9.319 -1.158,-22.391 8.368,-26.208 3.826,-1.534 8.08,-1.454 12.201,-1.353 11.445,0.284 22.889,0.566 34.333,0.849 4.716,0.116 9.57,0.211 13.985,-1.452 9.043,-3.406 13.906,-13.1 21.464,-19.121 7.36,-5.866 17.53,-8.026 26.638,-5.657 4.581,1.191 9.606,4.857 8.632,9.489 C 14.099,-5.578 4.882,-6.065 0,0"
             style="fill:#e30613;fill-opacity:1;fill-rule:nonzero;stroke:none"
             id="path687" /></g><g
           id="g689"
           transform="translate(349.5291,219.2172)"><path
             d="m 0,0 c -2.696,4.646 -8.006,8.221 -13.277,7.185 -1.807,-0.356 -3.613,-1.227 -5.41,-0.824 -1.241,0.279 -2.264,1.126 -3.23,1.95 -9.805,8.359 -19.271,17.113 -28.37,26.233 -4.911,4.923 -9.997,10.558 -10.481,17.494 -0.273,3.899 0.966,7.903 -0.061,11.673 -1.993,7.319 -11.252,10.204 -14.716,16.952 -2.001,3.899 -1.804,8.611 -3.634,12.592 -2.209,4.806 -7.003,7.835 -11.7,10.264 -9.461,4.89 -19.956,8.752 -26.845,16.875 -6.735,7.943 -8.951,18.754 -14.504,27.565 -4.748,7.534 -11.975,13.477 -20.285,16.678 -5.505,2.121 -11.413,3.057 -16.886,5.258 -5.473,2.2 -10.744,6.07 -12.466,11.711 -1.852,6.067 0.781,12.683 -0.354,18.923 -2.403,13.206 -19.871,19.004 -23.348,31.968 -1.881,7.016 0.825,14.761 -1.57,21.619 -6.638,19.006 -29.486,8.069 -29.899,-8.323 -0.261,-10.397 7.257,-19.19 10.647,-29.022 2.999,-8.698 3.028,-18.89 9.179,-25.732 3.306,-3.678 8.041,-5.907 11.092,-9.798 4.226,-5.39 4.522,-13.03 8.514,-18.597 2.75,-3.834 6.962,-6.29 10.829,-8.996 24.55,-17.179 37.522,-46.822 60.427,-66.14 8.542,-7.204 18.403,-12.913 25.927,-21.172 11.679,-12.819 16.52,-30.377 26.066,-44.855 13.414,-20.348 35.171,-33.377 56.188,-45.719 3.443,-2.022 7.006,-4.085 10.964,-4.602 3.959,-0.517 8.455,0.91 10.36,4.419 1.449,2.668 1.147,5.908 0.805,8.927 C 3.357,-10.157 2.697,-4.646 0,0"
             style="fill:#e30613;fill-opacity:1;fill-rule:nonzero;stroke:none"
             id="path691" /></g><g
           id="g693"
           transform="translate(267.5497,390.6635)"><path
             d="m 0,0 c -3.231,-0.939 -6.74,-0.492 -9.974,-1.425 -4.948,-1.43 -8.665,-6.348 -8.689,-11.499 -0.025,-5.15 3.642,-10.103 8.577,-11.581 7.194,-2.156 11.799,14.683 15.587,18.908 0.997,1.111 2.112,2.201 3.526,2.678 2.466,0.836 5.098,-0.359 7.667,-0.778 5.949,-0.968 11.681,2.285 16.831,5.413 4.403,2.675 8.806,5.348 13.208,8.023 C 33.463,10.396 19.341,10.855 7.856,4.177 5.285,2.682 2.857,0.832 0,0"
             style="fill:#e30613;fill-opacity:1;fill-rule:nonzero;stroke:none"
             id="path695" /></g><g
           id="g697"
           transform="translate(1116.0887,552.4858)"><path
             d="m 0,0 c 1.131,-0.84 2.5,-1.728 2.634,-3.13 0.073,-0.777 -0.269,-1.523 -0.499,-2.267 -1.794,-5.794 2.988,-11.372 7.37,-15.564 1.161,-1.11 2.451,-2.281 4.05,-2.425 1.99,-0.179 3.708,1.27 5.556,2.029 5.526,2.264 12.225,-1.711 17.662,0.758 3.008,1.368 4.859,4.387 6.528,7.237 0.844,1.441 1.717,3.005 1.572,4.667 -0.311,3.556 -4.933,5.036 -8.421,4.282 C 32.963,-5.167 29.761,-7.233 26.193,-7.331 20.015,-7.501 15.154,-1.58 13.815,4.452 12.476,10.487 13.616,16.755 13.734,22.934 13.826,27.741 13.583,52.101 7.685,53.283 5.576,53.706 3.418,52.362 2.285,50.536 1.15,48.71 0.844,46.499 0.696,44.354 0.278,38.286 0.893,31.963 -1.382,26.322 -2.55,23.425 -4.436,20.848 -5.473,17.902 -7.689,11.601 -5.361,3.986 0,0"
             style="fill:#e30613;fill-opacity:1;fill-rule:nonzero;stroke:none"
             id="path699" /></g><g
           id="g701"
           transform="translate(1247.5292,882.1874)"><path
             d="m 0,0 c 1.506,-2.775 3.442,-5.316 5.717,-7.504 1.737,-1.672 3.905,-3.215 6.311,-3.079 1.558,0.087 2.977,0.87 4.365,1.583 6.88,3.536 14.427,5.768 22.124,6.543 11.98,1.206 24.005,-1.09 35.826,-3.376 2.642,-0.511 5.283,-1.021 7.924,-1.532 1.626,7.284 1.582,16.626 -4.97,20.202 -3.765,2.055 -8.455,1.327 -12.462,-0.209 C 60.831,11.092 57.097,8.81 52.933,7.78 42.886,5.294 32.244,10.467 22.075,8.542 19.858,8.123 17.453,7.393 15.45,8.431 13.642,9.368 12.795,11.432 11.865,13.243 8.373,20.038 1.709,25.116 -5.767,26.681 c -0.53,-1.32 -0.158,-2.95 0.892,-3.91 -4.013,1.143 -8.548,2.007 -12.174,-0.055 -3.628,-2.064 -4.715,-8.301 -0.978,-10.157 -1.791,-1.16 -3.641,-2.381 -4.753,-4.201 -1.111,-1.821 -1.246,-4.426 0.277,-5.919 C -14.293,-5.611 -8.665,15.972 0,0"
             style="fill:#e30613;fill-opacity:1;fill-rule:nonzero;stroke:none"
             id="path703" /></g><g
           id="g705"
           transform="translate(2371.5803,924.1323)"><path
             d="M 0,0 C -2.033,7.677 -4.526,15.23 -7.537,22.582 -4.853,15.112 -2.378,7.571 0,0"
             style="fill:#e30613;fill-opacity:1;fill-rule:nonzero;stroke:none"
             id="path707" /></g><g
           id="g709"
           transform="translate(2784.2922,839.2221)"><path
             d="m 0,0 c 10.874,-16.918 22.167,-33.844 36.945,-47.485 9.341,-8.622 19.916,-15.783 30.446,-22.907 17.052,-11.536 34.103,-23.073 51.156,-34.61 15.036,-10.174 30.098,-20.362 45.972,-29.173 28.266,-15.687 59.011,-26.9 90.742,-33.095 -3.802,21.256 -14.509,41.22 -30.112,56.148 -3.5,3.349 -7.541,7.096 -7.494,11.94 0.052,5.322 5.004,9.142 9.6,11.825 12.826,7.488 26.852,12.915 41.379,16.004 3.623,0.772 7.431,1.392 10.988,0.36 11.712,-3.397 11.504,-21.118 3.941,-30.684 -7.562,-9.566 -19.353,-15.31 -26.099,-25.468 -1.533,-2.31 -2.813,-4.994 -2.518,-7.751 0.806,-7.539 12.153,-8.836 18.221,-4.292 6.067,4.543 9.164,12.064 14.649,17.295 7.734,7.377 20.573,10.934 22.883,21.368 2.472,11.157 -9.188,19.882 -19.232,25.335 7.47,6.046 26.415,3.352 26.659,15.782 -8.889,-0.933 -17.108,-2.657 -25.392,2.77 -4.887,3.202 -13.001,7.15 -14.881,1.617 -9.235,3.385 -18.468,6.77 -27.703,10.156 -2.391,0.876 -5.037,1.756 -7.421,0.86 -2.591,-0.973 -3.998,-3.691 -5.356,-6.102 -4.494,-7.973 -10.963,-14.823 -18.666,-19.763 -2.465,-1.582 -5.607,-2.991 -8.206,-1.643 -4.626,2.404 -1.872,9.738 2.341,12.808 4.214,3.07 9.915,5.666 10.541,10.842 0.521,4.31 -2.911,7.98 -6.073,10.956 -10.621,9.993 -21.24,19.986 -31.86,29.978 -6.219,5.853 -15.07,12.098 -22.481,7.857 -0.874,-10.962 2.758,-22.216 9.875,-30.598 6.305,-7.428 15.902,-14.588 14.351,-24.207 -1.191,-7.392 -9.179,-12.113 -16.666,-12.227 -7.486,-0.115 -14.543,3.215 -21.285,6.47 8.072,10.556 13.906,23.633 12.478,36.843 -1.428,13.211 -11.825,25.933 -25.087,26.742 0.421,14.842 -2.008,29.761 -7.115,43.704 -2.18,-0.737 -4.361,-1.471 -6.541,-2.207 2.547,-8.443 3.312,-17.755 0.085,-25.96 C 119.837,11.281 111.972,4.551 103.153,4.521 95.924,4.498 89.464,8.687 82.708,11.263 66.618,17.399 44.193,10.922 40.683,-5.936 c -4.185,7.581 -3.546,17.562 1.567,24.547 5.114,6.987 14.438,10.611 22.927,8.912 3.757,-0.75 7.279,-2.436 11.041,-3.16 16.63,-3.207 31.656,14.8 30.505,31.697 C 105.571,72.958 92.994,87.052 78.855,96.375 74.045,83.343 64.646,72.055 52.698,64.966 44.049,59.832 33.47,56.876 23.852,59.821 14.233,62.766 6.552,72.989 8.916,82.766 c 11.72,-7.837 27.777,-8.642 40.223,-2.019 6.279,3.34 11.649,8.468 14.984,14.751 8.197,15.437 3.112,34.447 -3.822,50.491 -6.936,16.045 -15.775,32.332 -14.643,49.774 1.133,17.443 17.947,35.147 34.45,29.388 4.561,-1.59 8.398,-4.698 12.285,-7.564 9.097,-6.707 18.93,-12.337 28.449,-18.432 41.057,-26.295 76.36,-61.526 102.739,-102.531 11.558,-17.966 21.435,-37.032 34.096,-54.238 13.093,-17.791 28.975,-33.336 42.839,-50.532 10.082,-12.507 19.155,-25.916 28.555,-39 -1.472,-2.347 -1.819,-8.196 -4.155,-12.92 -2.194,-4.441 -5.516,-8.483 -6.282,-13.376 -1.463,-9.349 6.619,-17.132 10.468,-25.777 3.654,-8.21 3.47,-17.542 3.221,-26.524 -0.374,-13.516 -0.749,-27.031 -1.124,-40.547 -0.072,-2.618 -0.212,-5.432 -1.817,-7.501 -1.001,-1.29 -2.46,-2.13 -3.698,-3.194 -6.062,-5.21 -5.872,-14.484 -5.181,-22.448 10.034,0.22 15.987,-11.848 15.418,-21.868 -0.57,-10.02 -4.975,-19.679 -4.431,-29.701 8.959,2.058 19.39,5.419 22.074,14.212 1.143,3.742 0.568,7.767 -0.017,11.637 -1.546,10.22 -3.092,20.442 -4.637,30.664 -0.836,5.525 -1.62,11.436 0.776,16.485 3.502,7.383 12.28,10.207 19.277,14.43 6.997,4.22 13.024,13.748 7.847,20.07 -3.217,3.927 -9.178,4.316 -13.054,7.594 -4.042,3.418 -5.117,9.343 -8.906,13.039 -2.496,2.435 -6.03,3.751 -8.091,6.564 -4.395,5.996 0.339,14.41 5.742,19.516 3.393,3.204 7.312,6.503 9.761,10.352 1.466,-1.367 2.859,-2.801 4.384,-4.112 10.642,17.442 8.535,41.705 -4.956,57.05 -2.116,2.406 -4.507,4.655 -5.919,7.533 -1.771,3.614 -1.793,7.793 -2.292,11.787 -2.292,18.342 -16.285,34.681 -34.057,39.764 -3.884,1.112 -8.059,1.796 -11.245,4.278 -8.199,6.386 -4.714,19.716 1.589,27.977 6.302,8.261 15.051,15.863 15.878,26.222 -18.68,5.548 -40.625,-8.559 -43.332,-27.856 -10.31,3.354 -17.615,12.952 -21.025,23.243 -3.409,10.291 -3.527,21.34 -3.612,32.181 -0.043,5.437 -0.068,10.996 1.685,16.143 5.349,15.708 24.142,21.482 40.347,25.054 -0.429,2.892 -0.858,5.785 -1.287,8.676 -12.721,5.229 -28.281,2.711 -38.704,-6.261 -10.423,-8.973 -15.228,-23.985 -11.951,-37.343 -14.311,3.533 -23.19,18.826 -24.11,33.538 -0.919,14.711 4.352,29.023 9.54,42.82 4.356,11.583 9.272,23.899 19.505,30.856 5.606,3.81 13.712,9.383 10.069,15.097 -1.203,1.886 -3.429,2.839 -5.586,3.424 -18.595,5.034 -38.988,-14.505 -34.751,-33.297 1.001,-4.439 3.089,-8.711 3.019,-13.262 -0.081,-5.36 -3.124,-10.166 -6.062,-14.649 -6.31,-9.623 -12.618,-19.247 -18.926,-28.87 -12.354,1.428 -14.872,19.092 -9.736,30.417 5.135,11.326 14.549,21.484 14.483,33.919 -0.01,1.911 -0.375,4.041 -1.904,5.188 -1.5,1.125 -3.601,0.911 -5.408,0.412 -15.592,-4.302 -21.294,-23.031 -24.464,-38.893 -22.616,22.574 -21.284,64.385 2.721,85.474 2.891,2.537 6.393,5.921 5.081,9.537 -0.54,1.489 -1.823,2.575 -3.132,3.466 -11.628,7.911 -29.571,3.968 -36.811,-8.091 -11.184,-18.626 3.836,-43.152 -2.117,-64.048 -21.597,7.351 -35.822,29.889 -37.364,52.65 -1.542,22.762 7.956,45.217 21.977,63.211 -10.255,0.726 -20.972,1.38 -30.41,-2.695 -9.44,-4.074 -17.001,-14.489 -14.246,-24.393 1.594,-5.73 6.152,-10.075 9.244,-15.156 5.042,-8.288 5.821,-19.638 0.031,-27.42 -5.791,-7.783 -18.732,-9.8 -25.395,-2.75 -4.779,5.056 -5.253,12.64 -7.046,19.361 -5.219,19.558 -23.404,37.847 -16.395,56.838 3.987,10.799 14.963,17.095 25.129,22.495 -14.156,-2.768 -27.441,-9.841 -37.641,-20.041 -5.829,-5.827 -10.918,-13.667 -9.489,-21.784 0.992,-5.636 4.934,-10.233 8.721,-14.523 6.724,-7.613 13.446,-15.227 20.169,-22.84 3.492,-3.954 7.093,-8.108 8.431,-13.209 1.339,-5.101 -0.367,-11.419 -5.166,-13.604 -6.032,-2.748 -12.683,2.112 -17.207,6.956 -16.494,17.656 -28.092,39.839 -33.181,63.459 -9.049,1.738 -12.776,-11.371 -11.52,-20.5 2.874,-20.888 12.643,-42.978 32.036,-51.253 12.516,-5.341 29.584,-5.863 34.982,-18.354 -6.691,-13.812 -25.806,-15.072 -40.933,-12.485 -12.769,2.183 -26.091,6.161 -34.582,15.945 -10.52,12.125 -10.943,29.867 -9.39,45.844 2.528,26.016 8.843,51.662 18.684,75.877 -7.881,2.46 -15.146,-4.9 -20.007,-11.573 C -46.059,320.85 -59.416,299.48 -67.881,276.046 -84.584,229.81 -81.085,178.088 -66.427,131.164 -51.768,84.24 -26.578,41.356 0,0"
             style="fill:#e30613;fill-opacity:1;fill-rule:nonzero;stroke:none"
             id="path711" /></g><g
           id="g713"
           transform="translate(3430.3567,763.1254)"><path
             d="M 0,0 C -0.783,-0.182 -1.56,-0.53 -2.317,-1.077 -1.572,-0.606 -0.795,-0.258 0,0"
             style="fill:#e30613;fill-opacity:1;fill-rule:nonzero;stroke:none"
             id="path715" /></g><g
           id="g717"
           transform="translate(4002.7893,1355.348)"><path
             d="m 0,0 c -10.203,6.162 -12.423,19.902 -12.281,31.822 0.14,11.919 1.321,24.854 -5.325,34.749 -4.744,-2.967 -2.705,-3.099 -8.237,-3.935 -1.179,3.042 -3.608,6.503 -4.787,9.544 -5.438,-14.433 -13.996,-32.268 -13.177,-47.67 5.239,0.158 10.467,0.709 15.706,0.866 v -48.187 c 4.84,-20.849 -0.926,-44.032 -13.189,-61.574 -4.032,-5.767 -8.879,-11.014 -12.08,-17.281 -2.083,-4.077 -4.019,-9.067 -8.437,-10.272 -7.675,-2.097 -14.835,9.387 -22.124,6.194 -5.405,-5.857 -2.688,-16.946 4.812,-19.641 2.395,-0.861 5.199,-1.049 6.981,-2.865 1.56,-1.59 1.88,-3.99 2.039,-6.211 1.148,-15.979 -1.822,-32.236 -8.542,-46.778 -3.209,-6.944 -7.886,-14.01 -15.195,-16.269 -7.308,-2.257 -16.961,3.434 -15.723,10.983 -4.96,3.243 -10.145,-3.828 -11.903,-9.486 -2.723,-8.766 -5.445,-17.533 -8.168,-26.299 -2.029,-6.534 -4.259,-13.392 -9.311,-18.005 -5.053,-4.613 -13.887,-5.83 -18.407,-0.694 -2.947,-10.04 -6.642,-20.279 -13.976,-27.743 -7.333,-7.466 -19.221,-11.394 -28.572,-6.697 -2.717,1.366 -6.245,3.301 -8.395,1.15 -1.068,-1.07 -1.198,-2.732 -1.265,-4.244 -0.358,-8.186 -0.717,-16.373 -1.076,-24.559 0.662,0.933 2.006,1.577 3.129,1.118 1.896,-0.774 2.621,-3.101 2.648,-5.149 0.188,-14.73 -18.358,-17.565 -29.408,-16.867 -19.974,1.26 -32.39,10.182 -50.944,-2.66 -10.028,-6.94 -16.029,-17.131 -28.092,-20.922 -5.792,-1.82 -9.169,-1.666 -11.497,-2.478 0.894,7.981 0.957,16.067 0.845,24.111 -0.762,54.659 -5.574,181.534 -52.025,252.801 1.891,-8.852 29.333,-112.97 20.289,-112.604 -5.013,0.203 -8.397,5.162 -10.284,9.809 -1.885,4.649 -3.422,9.924 -7.613,12.679 -4.192,2.756 -11.697,-0.033 -10.703,-4.949 8.285,-3.08 14.317,-11.451 14.619,-20.285 4.969,1.994 10.8,-1.239 13.545,-5.835 2.746,-4.598 3.173,-10.166 3.53,-15.508 0.549,-8.173 1.098,-16.346 1.647,-24.518 0.24,-3.584 0.434,-7.392 -1.283,-10.547 -2.036,-3.738 -6.34,-5.768 -8.532,-9.417 -1.808,-3.014 -1.936,-6.698 -2.237,-10.201 -2.298,-26.722 -17.175,-50.486 -31.637,-73.074 9.351,-4.832 18.074,7.358 21.716,17.233 7.443,20.184 15.29,40.219 23.533,60.091 2.6,-21.227 2.251,-42.814 -1.034,-63.946 -1.312,-8.446 -2.976,-17.629 1.147,-25.115 1.554,-2.826 3.859,-5.217 5.15,-8.171 3.768,-8.622 -2.183,-18.277 -8.523,-25.229 -13.465,-14.763 -30.12,-26.602 -48.488,-34.468 -2.807,-1.202 -5.997,-2.679 -6.822,-5.619 -1.263,-4.49 3.693,-7.947 6.695,-11.517 4.889,-5.815 5.009,-14.23 3.946,-21.753 -3.616,-25.551 -18.53,-49.294 -39.979,-63.644 -4.965,-3.323 -10.751,-6.831 -11.952,-12.685 -0.514,-2.499 -0.078,-5.097 -0.369,-7.632 -0.41,-3.569 -2.222,-6.801 -3.996,-9.925 -6.962,-12.249 -13.923,-24.497 -20.884,-36.746 -2.662,-4.683 -5.371,-9.429 -9.182,-13.238 -8.987,-8.981 -22.459,-11.336 -35.019,-13.247 -6.713,-1.021 -13.839,-1.995 -20.078,0.679 -6.703,2.873 -11.006,9.342 -16.291,14.365 -4.648,4.416 -11.572,7.829 -17.368,5.942 5.442,1.268 11.28,-5.557 13.857,-11.497 4.169,-9.603 7.98,-20.12 5.698,-30.336 -3.555,-15.909 -22.003,-25.474 -38.058,-22.652 -16.053,2.82 -29.045,15.427 -36.381,29.984 -4.3,8.532 -9.997,19.698 -19.427,18.166 8.024,-15.315 16.049,-30.629 24.073,-45.944 1.124,-2.143 2.281,-4.463 1.973,-6.863 -0.424,-3.299 -3.431,-5.595 -6.327,-7.229 -27.024,-15.244 -62.299,-5.734 -90.461,-18.754 -6.368,-2.944 -12.256,-7.001 -18.961,-9.064 -6.705,-2.065 -14.816,-1.685 -19.716,3.334 0.532,-0.499 -1.013,-1.667 -3.392,-3.054 0.534,4.74 1.022,9.486 1.507,14.226 0.821,8.002 1.642,16.006 2.462,24.008 0.572,5.577 1.144,11.211 0.454,16.775 -1.247,10.078 -6.52,19.197 -8.99,29.049 -2.327,9.282 -2.116,18.977 -2.592,28.534 -1.924,38.647 -15.226,75.835 -31.031,111.155 -5.023,-3.512 -0.777,-12.231 -4.313,-17.238 -6.091,-8.628 -23.107,5.191 -29.384,-3.304 -0.504,-4.341 4.228,-7.584 8.569,-8.089 4.341,-0.505 8.802,0.599 13.079,-0.3 9.879,-2.074 14.456,-13.261 17.429,-22.909 4.801,-15.58 9.636,-32.145 5.552,-47.927 -0.453,-1.747 -1.065,-3.552 -2.406,-4.758 -4.323,-3.892 -10.65,1.267 -14.527,5.601 -3.77,4.218 -14.811,16.952 -21.294,15.373 -10.351,-2.522 -2.608,-7.257 0.38,-10.81 7.57,-8.999 15.788,-25.223 28.193,-27.819 2.957,-0.62 6.279,-0.527 8.606,-2.454 1.957,-1.622 2.676,-4.259 3.293,-6.724 3.61,-14.457 7.22,-28.915 10.831,-43.372 0.976,-3.91 1.872,-8.356 -0.347,-11.72 -5.061,-7.671 -17.546,-0.556 -26.11,-3.891 -1.82,-2.43 -0.094,-6.025 2.338,-7.843 2.432,-1.819 5.496,-2.732 7.707,-4.813 3.672,-3.458 4.025,-9.063 4.3,-14.099 0.894,-16.353 3.524,-32.609 7.83,-48.409 0.258,-0.946 0.606,-1.942 1.044,-2.876 -2.127,-5.601 -4.254,-11.203 -6.381,-16.804 -4.872,-12.83 -9.779,-25.736 -16.807,-37.523 -2.781,-4.665 -5.9,-9.167 -7.989,-14.179 -2.544,-6.103 -3.468,-12.733 -4.914,-19.185 -5.604,-25.012 -19.075,-47.436 -32.342,-69.365 -10.456,-17.283 -22.667,-35.955 -42.096,-41.483 1.837,7.864 1.829,16.15 -0.021,24.01 -10.066,-4.358 -20.131,-8.716 -30.197,-13.073 -3.269,-1.415 -6.746,-3.007 -8.582,-6.061 -1.836,-3.053 -0.91,-7.963 2.543,-8.841 1.697,-0.433 3.468,0.196 5.076,0.89 5.999,2.592 11.538,6.246 16.282,10.742 2.096,-1.694 4.194,-3.387 6.291,-5.081 -3.729,-7.543 -7.456,-15.086 -11.183,-22.628 -2.284,-4.622 -4.757,-9.462 -9.064,-12.294 -2.63,-1.729 -5.841,-2.627 -8.042,-4.877 -4.829,-4.937 -5.01,-14.835 -7.436,-21.1 -2.571,-6.638 -5.983,-12.927 -10.931,-18.096 -0.472,-0.492 -1.013,-0.973 -1.578,-1.451 -0.05,0.022 -0.09,0.06 -0.141,0.08 -6.61,2.661 -17.349,-6.758 -19.348,0.081 3.375,2.61 6.912,5.435 8.363,9.445 1.451,4.012 -0.264,9.471 -4.426,10.404 -3.934,-2.832 -7.868,-5.665 -11.8,-8.499 4.441,-19.965 -8.278,-42.261 -27.725,-48.598 -20.489,-6.677 -43.975,3.023 -63.971,-5.016 -9.002,-3.618 -16.697,-10.663 -26.278,-12.193 -9.015,-1.44 -18.014,2.281 -27.129,2.762 -11.295,0.595 -22.17,-3.774 -33.191,-6.315 -28.137,-6.487 -58.564,-1.214 -85.578,-11.413 -11.739,-4.431 -22.953,-11.786 -35.5,-11.597 -8.709,0.13 -16.889,3.932 -24.762,7.658 -29.431,13.929 -58.861,27.86 -88.292,41.79 -5.103,2.415 -10.335,4.923 -14.19,9.047 -3.052,3.261 -5.058,7.349 -7.729,10.93 -6.698,8.983 -17.117,14.272 -27.155,19.252 -11.143,5.527 -22.284,11.054 -33.427,16.58 -1.712,0.85 -3.48,1.715 -5.388,1.84 -2.962,0.194 -5.771,-1.42 -8.738,-1.519 -4.929,-0.165 -8.929,3.722 -12.382,7.242 -18.837,19.2 -40.421,35.702 -63.888,48.848 -5.352,2.996 -11.023,6.017 -14.434,11.116 -2.545,3.802 -3.566,8.384 -5.013,12.724 -5.123,15.374 -16.305,28.637 -30.592,36.283 0,-0.003 -3.334,20.554 -4.627,23.128 -3.738,7.443 -9.298,13.147 -15.875,18.128 -1.454,1.103 -2.838,1.961 -4.19,2.71 3.229,5.717 6.478,11.421 9.659,17.165 1.344,2.426 2.713,4.948 2.952,7.711 0.287,3.328 -1.093,6.537 -2.086,9.724 -2.852,9.16 -2.548,19.271 0.847,28.243 3.119,8.24 8.805,15.784 9.242,24.584 0.213,4.286 -0.861,8.517 -1.423,12.772 -1.455,11.016 0.52,22.157 2.182,33.143 13.507,89.273 6.224,181.58 -20.83,267.709 7.659,-28.92 8.381,-59.685 1.817,-88.882 -3.664,-16.295 -9.51,-33.365 -4.264,-49.222 4.756,-14.372 18.369,-27.211 14.754,-41.912 -3.556,-14.463 -22.989,-23.557 -20.673,-38.268 0.996,-6.328 6.054,-11.385 7.353,-17.657 2.697,-13.011 -10.737,-22.842 -19.173,-33.108 -12.772,-15.545 -15.198,-36.876 -17.107,-56.904 6.902,3.617 15.488,-3.474 16.418,-11.211 0.928,-7.736 -3.117,-15.104 -7.024,-21.847 -5.883,-10.153 -11.819,-20.378 -19.573,-29.185 -3.524,-4.003 -7.458,-7.763 -9.915,-12.495 -3.07,-5.912 -3.55,-12.768 -4.872,-19.297 -2.97,-14.668 -10.555,-28.366 -21.411,-38.669 -6.155,-5.841 -14.118,-12.996 -11.485,-21.062 1.106,-3.393 3.928,-5.882 6.073,-8.734 1.512,-2.012 2.501,-3.897 3.164,-5.714 -2.535,-2.946 -4.999,-5.949 -7.269,-9.109 -13.905,-19.359 -22.201,-43.698 -41.622,-57.515 -27.575,-19.619 -68.253,-11.265 -95.608,-31.192 6.575,-3.311 14.427,-1.922 21.735,-2.803 7.309,-0.881 15.537,-6.333 14.238,-13.578 -0.488,-2.711 -2.272,-5.025 -4.334,-6.851 -12.872,-11.387 -32.605,-5.336 -49.666,-3.253 -17.061,2.083 -40.234,-8.138 -35.839,-24.754 1.18,-4.462 4.378,-8.838 3.019,-13.249 -0.79,-2.563 -2.976,-4.421 -5.153,-5.99 -32.563,-23.463 -85.813,-6.473 -98.77,31.514 -4.933,14.458 -5.976,32.467 -19.018,40.422 -12.864,7.848 -31.198,-0.62 -37.152,-14.462 -5.955,-13.842 -1.797,-30.319 6.585,-42.84 4.788,0.611 9.042,4.282 10.347,8.929 -10.05,7.813 -11.591,24.401 -3.15,33.93 12.74,3.211 26.479,-5.438 31.769,-17.464 5.291,-12.027 3.368,-26.253 -2.144,-38.179 -1.431,-3.098 -3.239,-6.243 -6.212,-7.915 -10.913,-6.14 -27.174,11.332 -35.37,1.864 10.233,-11.978 23.303,-21.518 37.83,-27.614 -15.741,-10.194 -36.9,-11.393 -53.693,-3.043 -8.385,4.169 -16.235,10.664 -25.599,10.813 -9.362,0.15 -18.606,-11.713 -11.991,-18.341 -25.73,-1.479 -51.848,-2.929 -77.01,2.648 -25.161,5.575 -49.687,19.188 -62.628,41.476 -5.581,-21.292 -35.202,-25.825 -55.515,-17.346 -20.312,8.479 -36.711,25.032 -57.61,31.942 -13.954,4.614 -29.089,4.625 -43.101,9.064 -14.949,4.734 -27.617,14.239 -38.776,25.013 -20.207,19.511 -36.082,43.909 -59.554,59.896 -0.183,0.125 -0.376,0.222 -0.561,0.344 0.484,0.136 0.972,0.257 1.472,0.334 -24.592,14.674 -47.03,32.949 -66.377,54.06 -3.885,4.239 -7.714,8.652 -12.563,11.741 -3.603,2.297 -7.761,3.863 -10.723,6.942 -3.845,3.997 -4.99,9.791 -7.362,14.806 -4.207,8.893 -12.253,15.256 -20.027,21.288 -9.674,7.505 -19.348,15.012 -29.022,22.519 -9.857,7.648 -20.055,15.71 -25.432,26.968 -5.377,11.258 -4.249,26.68 5.902,33.933 -5.748,1.075 -8.428,8.444 -6.626,14.008 1.802,5.563 6.595,9.559 11.296,13.036 4.702,3.479 9.727,6.968 12.409,12.165 5.559,10.777 -0.853,24.846 4.656,35.648 5.273,10.34 19.05,13.217 26.267,22.308 1.675,2.11 3.003,4.795 2.431,7.427 -0.483,2.214 -2.2,3.928 -3.201,5.96 -3.084,6.258 1.154,13.62 5.907,18.728 4.753,5.106 10.547,10.249 11.158,17.199 0.368,4.191 3.726,8.944 2.112,12.83 -3.358,8.082 -8.627,16.002 -11.986,24.084 -0.866,2.084 -1.936,5.166 -3.712,6.557 -0.605,0.472 1.913,5.333 1.229,5.562 5.816,12.607 5.065,19.391 8.559,32.784 4.404,16.877 5.695,34.387 6.967,51.783 3.995,54.604 7.992,109.224 9.917,163.94 0.391,11.135 0.69,22.372 -1.334,33.328 -1.683,9.118 -6.296,33.401 -16.18,37.317 -11.735,4.653 -1.83,-22.444 -0.656,-28.669 1.573,-8.336 2.649,-18.294 -3.594,-24.037 -6.093,-5.604 -15.927,-3.889 -23.292,-0.109 -7.364,3.78 -14.088,9.326 -22.246,10.733 -11.314,1.954 -22.205,-4.476 -31.89,-10.641 7.525,0.786 15.051,1.571 22.577,2.357 1.868,0.194 3.792,0.384 5.592,-0.15 2.446,-0.726 4.297,-2.668 6.324,-4.218 6.355,-4.864 14.7,-6.008 22.216,-8.756 7.516,-2.748 15.189,-8.576 15.261,-16.578 0.081,-9.079 -9.705,-17.548 -6.002,-25.837 1.205,-2.696 3.646,-4.612 5.36,-7.016 2.114,-2.964 3.067,-6.588 3.788,-10.157 1.126,-5.572 1.743,-11.568 -0.553,-16.769 -2.296,-5.201 -8.416,-9.087 -13.743,-7.102 10.481,-10.41 10.75,-27.273 7.883,-41.764 -2.867,-14.492 -8.184,-28.949 -6.401,-43.614 0.607,-5.001 2.041,-10.014 1.293,-14.997 -0.628,-4.188 -2.753,-7.991 -3.924,-12.061 -1.514,-5.262 -1.425,-10.933 -3.374,-16.048 -1.949,-5.117 -7.112,-9.779 -12.409,-8.396 2.077,6.504 -4.2,12.424 -9.759,16.387 l -23.371,16.661 c -6.372,4.542 -13.317,9.277 -21.142,9.236 -7.825,-0.041 -15.966,-7.445 -13.595,-14.902 6.333,-4.3 15.406,4.167 22.221,0.68 2.887,-1.477 4.368,-4.665 6.154,-7.372 9.481,-14.368 30.69,-18.002 38.854,-33.155 4.853,-9.009 3.834,-19.939 2.32,-30.058 -0.905,-6.054 -2.344,-12.75 -7.385,-16.222 -3.337,-2.298 -7.589,-2.673 -11.435,-3.953 -3.846,-1.28 -7.793,-4.261 -7.718,-8.313 0.01,-0.373 0.056,-0.739 0.123,-1.104 -4.007,-2.223 -7.097,-6.005 -8.302,-13.296 -1.188,-7.182 -0.344,-14.756 -2.88,-21.58 -1.909,-5.138 -5.572,-9.392 -9.001,-13.668 -18.504,-23.068 -32.082,-50.067 -39.567,-78.676 -3.117,-11.915 -5.287,-24.345 -11.572,-34.935 -2.865,-4.831 -6.518,-9.146 -10.261,-13.335 -11.421,-12.781 -23.869,-24.646 -37.182,-35.441 -18.632,5.697 -37.758,-5.745 -53.89,-16.669 27.6,1.325 57.908,3.788 77.513,23.261 4.472,4.444 9.899,10.167 15.886,8.193 -1.319,-13.014 -2.875,-26.004 -4.667,-38.963 1.575,2.112 3.15,4.222 4.724,6.336 -0.678,-2.947 -7.053,-8.14 -7.608,-11.112 18.271,7.755 24.024,30.291 40.856,47.184 26.519,-41.995 64.138,-75.596 101.248,-108.605 42.412,-37.725 84.824,-75.45 127.235,-113.173 35.462,-31.544 72.674,-64.06 118.46,-76.557 31.24,-8.526 65.045,-7.232 94.855,-19.881 15.743,-6.68 29.804,-17.048 45.912,-22.789 19.056,-6.792 39.782,-6.712 60.008,-6.357 46.809,0.818 93.6,2.686 140.326,5.6 48.492,3.026 97.847,7.396 142.684,26.114 55.036,22.976 99.191,65.861 138.694,110.543 28.895,32.683 56.441,67.615 76.441,106.13 9.357,15.021 18.522,30.16 27.562,45.374 23.103,-44.685 65.849,-75.479 107.048,-104.465 19.601,-13.79 39.202,-27.581 58.803,-41.372 28.125,-19.789 56.423,-39.679 87.497,-54.411 17.35,-8.227 35.454,-14.788 53.816,-20.406 54.799,-16.769 112.297,-25.202 169.564,-23.034 69.25,2.619 137.694,20.803 199.872,51.403 6.016,2.961 12.185,6.351 17.875,10.268 15.138,1.464 37.997,16.114 44.9,19.673 6.928,3.571 13.888,7.163 20.157,11.792 6.63,4.894 12.376,10.866 18.088,16.807 10.373,10.79 20.747,21.58 31.121,32.371 9.988,10.387 20.009,20.817 28.484,32.471 24.479,33.663 34.643,75.408 42.85,116.215 7.288,36.228 13.436,72.683 18.485,109.288 3.449,0.104 6.965,0.761 10.347,1.446 29.116,5.904 58.233,11.806 87.35,17.709 17.612,3.57 35.243,7.144 52.547,11.995 34.324,9.624 67.06,24.184 99.034,39.942 23.708,11.683 47.345,24.238 67.034,41.871 39.595,35.457 59.261,87.48 77.531,137.392 10.68,29.178 21.36,58.355 32.041,87.533 0.582,1.589 1.158,3.183 1.731,4.778 0.221,-3.543 0.762,-6.979 1.672,-10.05 29.559,-2.957 62.328,2.197 91.814,5.756 7.953,0.96 16.102,2.098 23.079,6.01 8.909,4.997 14.823,13.871 22.135,21.001 9.923,9.676 22.444,16.138 34.123,23.599 29.257,18.692 53.988,44.415 71.513,74.387 8.111,13.873 14.677,28.585 21.125,43.306 28.499,65.055 55.06,130.937 81.616,196.807 0.561,1.391 1.129,2.814 1.205,4.312 C 16.578,-6.123 6.43,-3.882 0,0"
             style="fill:#e30613;fill-opacity:1;fill-rule:nonzero;stroke:none"
             id="path719" /></g><g
           id="g721"
           transform="translate(3792.0657,1050.1703)"><path
             d="M 0,0 C 0.03,0.692 0.062,1.383 0.092,2.076 -0.362,1.435 -0.505,0.663 0,0"
             style="fill:#e30613;fill-opacity:1;fill-rule:nonzero;stroke:none"
             id="path723" /></g><g
           id="g725"
           transform="translate(3712.8567,1078.3246)"><path
             d="M 0,0 C 4.855,2.074 9.897,4.187 15.177,4.074 20.455,3.961 26.062,0.98 27.49,-4.103 c 0.352,-1.249 0.475,-2.638 1.33,-3.613 1.861,-2.12 5.316,-0.7 7.661,0.866 3.105,2.073 6.263,4.307 8.165,7.517 1.903,3.211 2.204,7.673 -0.28,10.458 -2.539,2.849 -6.858,3.016 -10.674,2.972 C 25.569,14.004 16.74,13.665 10.495,8.469 9.307,7.48 8.167,6.294 6.66,5.952 5.246,5.631 3.793,6.12 2.378,6.436 -0.664,7.116 -4.079,6.925 -6.579,5.064 -9.08,3.203 -10.2,-0.635 -8.402,-3.181 c 2.768,-3.917 8.867,-1.994 13.08,0.298"
             style="fill:#e30613;fill-opacity:1;fill-rule:nonzero;stroke:none"
             id="path727" /></g><g
           id="g729"
           transform="translate(3886.7122,1435.9706)"><path
             d="m 0,0 c -4.214,7.543 -15.292,6.447 -23.085,10.176 -14.418,6.899 -14.343,28.02 -25.337,39.621 -4.303,4.541 -10.149,7.409 -14.366,12.03 -7.88,8.635 -8.586,21.74 -6.196,33.182 7.005,33.545 39.056,60.104 73.318,60.753 -18.422,7.023 -40.18,4.564 -56.569,-6.393 -16.39,-10.958 -26.977,-30.125 -27.528,-49.832 -19.011,3.759 -35.48,18.38 -41.464,36.812 -14.027,-0.084 -25.83,13.231 -26.801,27.224 -0.972,13.994 7.067,27.515 18.172,36.085 11.104,8.571 24.915,12.862 38.665,15.636 -23.22,16.318 -60.353,5.757 -71.51,-20.339 -4.589,-10.733 -5.427,-23.424 -13.137,-32.191 -6.753,15.47 -6.406,33.878 0.926,49.082 -7.259,4.926 -17.791,2.386 -23.914,-3.896 -6.123,-6.283 -8.56,-15.322 -9.262,-24.066 -0.398,-4.963 -0.818,-10.86 -5.12,-13.365 -2.692,-1.566 -6.046,-1.192 -9.132,-0.762 -14.413,2.005 -31.422,6.168 -36.318,19.871 -3.317,9.283 0.46,19.579 -0.647,29.373 -1.106,9.795 -12.986,19.615 -20.011,12.702 8.129,-14.553 12.307,-31.287 11.976,-47.953 -0.049,-2.449 -0.232,-5.024 -1.564,-7.08 -1.459,-2.251 -4.052,-3.492 -6.613,-4.293 -12.32,-3.858 -26.825,0.749 -34.66,11.011 -4.871,6.378 -9.903,15.838 -17.7,13.939 3.628,9.981 9.116,19.25 16.02,27.311 5.434,6.347 17.341,12.669 18.759,20.284 -10.527,5.53 -26.659,-6.074 -35.467,-11.952 -30.071,-20.064 -60.384,-40.326 -85.655,-66.176 -12.487,-12.773 -23.883,-27.251 -29.335,-44.26 -4.422,-13.794 -4.716,-28.534 -4.63,-43.018 0.14,-23.438 1.841,-48.729 16.745,-66.819 23.933,-29.052 72.688,-28.519 94.386,-59.276 4.262,-6.039 7.303,-13.119 12.946,-17.893 3.504,-2.965 7.794,-4.839 11.516,-7.526 11.877,-8.572 16.308,-23.815 22.135,-37.254 15.042,-34.695 44.401,-62.919 79.661,-76.583 19.457,-7.541 40.279,-10.735 60.909,-13.878 14.915,-2.273 29.83,-4.545 44.746,-6.819 12.564,-1.913 29.412,-1.306 32.998,10.886 3.769,12.813 -11.826,23.019 -14.76,36.048 -2.163,9.602 2.879,19.278 3.527,29.1 0.647,9.821 -8.019,21.885 -16.867,17.575 -5.666,-8.053 -4.131,-19.142 -0.611,-28.338 3.52,-9.195 8.807,-17.883 10.158,-27.635 1.698,-12.267 -3.573,-25.26 -13.334,-32.879 4.416,9.888 -5.569,19.874 -14.401,26.14 -7.764,5.508 -15.529,11.016 -23.294,16.523 -2.973,2.11 -6.002,4.273 -8.148,7.222 -7.166,9.852 -1.231,24.762 9.02,31.349 10.25,6.586 23.113,7.131 35.292,7.476 -2.865,5.234 -4.823,10.963 -5.76,16.857 -32.565,-11.512 -71.19,-3.642 -96.656,19.692 -3.426,-12.501 -6.853,-25 -10.28,-37.5 -2.153,-7.854 -8.803,-17.807 -15.875,-13.769 -4.509,2.573 -4.523,8.955 -3.957,14.116 0.752,6.857 1.504,13.716 2.256,20.573 0.856,7.807 0.376,17.92 -7.008,20.594 -8.002,2.898 -15.056,-6.124 -18.159,-14.05 -3.103,-7.925 -7.265,-17.686 -15.762,-18.17 -3.558,4.102 -2.247,10.59 0.691,15.156 2.937,4.566 7.222,8.201 9.797,12.983 5.322,9.882 2.045,22.486 -4.457,31.637 -6.502,9.15 -15.759,15.892 -23.909,23.612 -19.672,18.633 -33.506,45.649 -29.317,72.419 2.299,14.693 9.757,28.201 12.022,42.898 2.028,13.155 -0.009,27.455 6.476,39.078 8.457,15.155 27.989,19.809 45.33,20.532 26.117,1.088 52.45,-3.307 76.799,-12.818 29.126,-11.378 54.939,-29.752 79.747,-48.789 12.18,-9.346 24.303,-18.997 34.06,-30.851 16.418,-19.945 25.226,-44.966 32.519,-69.747 5.237,-17.794 9.859,-35.768 13.856,-53.882 2.82,-12.779 4.342,-28.547 -5.938,-36.645 3.21,-1.981 6.421,-3.963 9.632,-5.943 -4.307,-5.772 -8.627,-16.237 -10.16,-20.035 -11.085,-27.444 -18.307,-51.432 -14.243,-81.334 5.844,7.958 10.241,16.783 13.961,25.947 3.023,7.44 5.6,15.103 8.145,22.705 1.332,3.979 2.664,7.958 3.997,11.937 1.281,3.826 2.564,7.653 3.845,11.48 2.684,8.018 5.406,16.425 4.07,24.775 -0.565,3.54 -1.349,5.803 -2.277,7.096 6.435,12.74 9.023,27.415 7.226,41.581 -1.484,11.712 -5.806,23.842 -1.821,34.954 C -3.564,-17.203 4.545,-8.137 0,0"
             style="fill:#e30613;fill-opacity:1;fill-rule:nonzero;stroke:none"
             id="path731" /></g><g
           id="g733"
           transform="translate(4087.3,1482.1732)"><path
             d="m 0,0 c 0.99,-0.643 2.265,-1.298 3.278,-0.692 0.458,0.275 0.746,0.756 1,1.227 6.397,11.881 0.351,28.691 -12.147,33.777 -5.338,2.171 -11.469,2.446 -16.272,5.629 -6.952,4.605 -27.004,12.105 -25.436,-6.238 0.804,-9.408 15.273,-6.669 23.561,-6.842 C -24.465,13.367 -10.394,6.745 0,0"
             style="fill:#e30613;fill-opacity:1;fill-rule:nonzero;stroke:none"
             id="path735" /></g><g
           id="g737"
           transform="translate(4092.802,1419.5131)"><path
             d="m 0,0 c -1.713,2.897 -4.375,5.138 -7.277,6.84 -9.161,5.374 -20.549,5.601 -30.952,3.466 -10.405,-2.136 -20.222,-6.423 -30.336,-9.664 11.093,3.221 23.397,2.061 33.694,-3.177 6.205,-3.156 11.884,-8.033 14.258,-14.577 3.981,0.876 7.962,1.751 11.942,2.626 -1.018,-12.263 -2.038,-24.526 -3.058,-36.79 0.419,5.044 12.78,13.873 14.271,21.604 C 3.925,-22.503 3.742,-6.331 0,0"
             style="fill:#e30613;fill-opacity:1;fill-rule:nonzero;stroke:none"
             id="path739" /></g><g
           id="g741"
           transform="translate(2227.3333,781.6078)"><path
             d="m 0,0 c -4.752,2.231 -9.485,16.075 -11.801,20.672 -14.883,29.539 -25.558,61.393 -44.718,88.631 -3.154,4.485 -6.571,8.905 -8.418,14.067 -1.846,5.164 -1.857,11.354 1.492,15.696 3.012,3.907 8.256,5.619 13.182,5.35 13.836,-0.758 23.05,-14.311 29.106,-26.774 C -12.419,99.66 -5.517,80.794 -0.512,61.441 3.714,45.103 8.846,26.004 8.295,9.004 8.132,3.987 6.979,-3.277 0,0 m 104.738,71.878 c -1.374,4.294 -6.345,7.749 -10.424,5.826 -1.468,-0.693 -2.592,-1.951 -3.988,-2.78 -4.491,-2.665 -10.268,-0.256 -14.511,2.789 -4.242,3.047 -8.425,6.892 -13.637,7.224 -2.971,0.189 -5.888,-0.824 -8.592,-2.07 -14.802,-6.825 -20.698,-20.89 -30.133,-32.432 -0.863,3.269 -1.948,6.528 -2.828,9.75 -5.088,18.606 -3.331,39.55 -13.698,55.816 -4.17,6.544 -10.056,11.834 -16.37,16.341 -4.118,2.939 -8.547,5.678 -11.485,9.793 -2.921,4.092 -4.082,9.153 -5.021,14.092 -3.925,20.646 -4.981,42.6 2.771,62.134 7.753,19.534 25.982,35.981 46.991,36.526 -6.007,9.268 -19.982,8.505 -30.144,4.178 -30.678,-13.06 -48.654,-50.433 -39.71,-82.554 0.559,-2.007 1.211,-4.131 0.625,-6.13 -1.019,-3.477 -5.135,-4.866 -8.705,-5.482 -9.51,-1.641 -21.063,-0.615 -26.159,7.579 -2.246,3.61 -2.79,7.999 -4.334,11.961 -3.589,9.21 -12.269,15.494 -16.926,24.212 -8.181,15.314 -3.392,36.76 -15.936,48.766 3.761,0.67 7.519,1.342 11.28,2.014 0.705,2.668 1.412,5.336 2.118,8.003 -6.93,7.32 -20.402,2.869 -25.26,-5.963 -4.857,-8.832 -3.545,-19.677 -1.514,-29.55 5.028,-24.434 13.654,-48.125 25.513,-70.072 -3.193,-4.713 -10.555,-2.052 -15.181,1.265 -14.97,10.738 -28.062,24.089 -38.501,39.269 -5.296,7.7 -8.069,17.803 -17.124,20.117 -1.582,-10.949 -5.892,-23.163 -7.473,-34.111 -1.009,-6.99 -2.02,-14.037 -1.57,-21.084 0.335,-5.25 1.476,-10.409 2.613,-15.545 3.926,-17.721 8.877,-22.348 14.32,-39.663 7.284,-23.172 21.526,-56.374 38.397,-73.849 4.346,-4.501 4.182,-11.399 7.543,-16.677 4.64,-7.285 20.252,-29.987 22.683,-38.274 12.94,-44.107 41.246,-61.225 61.577,-102.448 14.13,-28.649 15.87,-52.425 20.768,-42.149 8.343,17.501 11.454,26.22 17.301,32.767 5.007,5.606 11.35,10.822 12.742,18.211 1.569,8.328 -3.776,16.805 -2.225,25.138 1.565,8.408 9.698,14.33 11.628,22.661 1.301,5.614 -0.414,11.452 -0.419,17.214 -0.013,15.342 12.01,29.892 8.139,44.739 -0.044,0.168 -0.119,0.328 -0.167,0.496 0.827,0.4 1.631,0.842 2.305,1.461 2.114,1.946 2.636,5.032 3.038,7.878 0.957,6.772 1.844,14.019 -1.156,20.167 -1.001,2.051 -2.416,3.923 -3.03,6.122 -1.484,5.311 2.19,10.822 6.732,13.949 4.542,3.127 9.974,4.719 14.665,7.618 2.81,1.739 5.35,3.945 8.371,5.285 13.455,5.974 28.871,-7.283 43.181,-3.829 1.149,4.36 2.294,9.007 0.92,13.301"
             style="fill:#e30613;fill-opacity:1;fill-rule:nonzero;stroke:none"
             id="path743" /></g><g
           id="g745"
           transform="translate(3691.179,1084.9579)"><path
             d="m 0,0 c 2.563,0.867 4.972,2.127 7.368,3.382 6.913,3.621 13.826,7.242 20.74,10.863 6.476,3.392 13.021,6.829 18.519,11.648 4.149,3.636 7.709,8.059 12.524,10.752 4.634,2.591 10.033,3.355 15.095,4.956 11.439,3.617 21.12,11.56 28.723,20.84 7.602,9.28 13.336,19.919 19.02,30.483 6.566,12.201 13.131,24.402 19.696,36.603 3.607,6.703 7.308,13.763 7.309,21.374 -12.11,-4.756 -25.449,-6.345 -38.337,-4.566 2.544,4.318 8.54,4.568 13.547,4.784 9.343,0.404 18.608,2.499 27.216,6.153 2.383,-6.829 -0.733,-14.232 -3.792,-20.787 -4.445,-9.528 -8.892,-19.057 -13.337,-28.586 -4.121,-8.834 -8.242,-17.667 -12.364,-26.501 -2.098,-4.496 -4.202,-9.006 -6.836,-13.212 C 104.413,51.127 86.157,40.565 68.628,30.68 53.082,21.913 37.537,13.146 21.992,4.38 18.095,2.182 14.168,-0.036 10.78,-2.959 1.535,-10.938 -4.324,-24.392 -16.347,-26.528 c -0.475,-0.084 -0.973,-0.147 -1.435,-0.005 -0.901,0.279 -1.392,1.231 -1.718,2.116 C -25.566,-7.947 -12.051,-4.077 0,0"
             style="fill:#e30613;fill-opacity:1;fill-rule:nonzero;stroke:none"
             id="path747" /></g></g></g></g></svg>
